<?xml version="1.0" encoding="utf-8"?>
<!-- Generator: Adobe Illustrator 16.0.0, SVG Export Plug-In . SVG Version: 6.00 Build 0)  -->
<!DOCTYPE svg PUBLIC "-//W3C//DTD SVG 1.1//EN" "http://www.w3.org/Graphics/SVG/1.1/DTD/svg11.dtd">
<svg version="1.1" id="Layer_1" xmlns="http://www.w3.org/2000/svg" xmlns:xlink="http://www.w3.org/1999/xlink" x="0px" y="0px"
	 width="623.357px" height="258.892px" viewBox="0 0 623.357 258.892" enable-background="new 0 0 623.357 258.892"
	 xml:space="preserve">
<g>
	<path fill-rule="evenodd" clip-rule="evenodd" fill="#8CC442" d="M311.696,258.82c-102.75,0-205.5-0.014-308.25,0.07
		c-2.812,0.003-3.449-0.633-3.446-3.445C0.088,171.32,0.086,87.195,0,3.07C-0.003,0.502,0.504-0.001,3.071,0
		c205.75,0.076,411.5,0.076,617.25,0c2.568-0.001,3.074,0.502,3.072,3.07c-0.087,84.25-0.087,168.5,0,252.75
		c0.002,2.568-0.504,3.073-3.072,3.071C517.446,258.808,414.571,258.82,311.696,258.82z"/>
	<path fill-rule="evenodd" clip-rule="evenodd" fill="#FEFEFE" d="M310.598,102.101c3.737-22.715,11.038-44.546,16.581-66.813
		c2.531-10.171,5.369-20.266,7.936-30.429c0.642-2.541,1.676-3.621,4.521-3.567c10.244,0.193,20.497,0.174,30.744,0.019
		c3.164-0.048,4.096,0.422,3.026,3.879c-8.997,29.088-17.796,58.238-26.677,87.363c-6.369,20.887-12.82,41.75-19.098,62.666
		c-0.742,2.475-1.748,3.411-4.373,3.364c-8.622-0.155-17.252-0.223-25.869,0.028c-3.177,0.093-3.918-1.463-4.681-3.968
		c-13.563-44.526-27.199-89.031-40.814-133.542c-1.643-5.369-3.161-10.779-4.934-16.104c-0.864-2.596-0.831-3.756,2.493-3.695
		C259.7,1.487,269.951,1.396,280.2,1.348c1.925-0.01,3.208,0.246,3.815,2.52c8.017,30.012,17.617,59.597,24.262,89.979
		c0.392,2.342,1.176,4.616,1.185,7.028C309.464,101.567,309.413,102.443,310.598,102.101z"/>
	<path fill-rule="evenodd" clip-rule="evenodd" fill="#FEFEFE" d="M608.56,105.394c-0.369,12.37-1.389,24.418-6.902,35.553
		c-6.564,13.258-17.276,20.062-32.127,19.774c-15.52-0.301-26.572-7.894-31.971-22.26c-8.138-21.659-8.777-43.856-0.186-65.479
		c9.27-23.327,38.108-29.784,56.421-13.159c8.051,7.309,11.336,17.139,13.188,27.516C608.061,93.37,608.39,99.48,608.56,105.394z"/>
	<path fill-rule="evenodd" clip-rule="evenodd" fill="#FEFEFE" d="M72.325,99.614c5.122,0.004,10.243,0.002,15.365,0.006
		c1.281,0,2.586-0.066,2.567,1.827c-0.11,11.087,0.867,22.252-2.274,33.124c-4.62,15.99-16.068,25.168-32.593,26.192
		c-15.789,0.979-29.79-6.985-35.681-21.604c-8.849-21.963-9.014-44.425-0.354-66.442C25.26,57.705,37.62,51.158,53.378,50.899
		c15.233-0.25,25.277,7.634,31.826,20.854c1.373,2.771,1.042,4.096-2.019,5.193c-5.75,2.063-11.403,4.42-16.992,6.893
		c-2.326,1.028-3.554,0.645-4.748-1.577c-1.996-3.711-4.448-6.971-9.335-6.993c-4.793-0.023-8.124,2.313-10.091,7.426
		c-1.264,3.283-1.857,6.743-2.144,10.229c-0.881,10.723-1.347,21.455,1.14,32.045c1.766,7.521,5.689,11.276,11.476,11.384
		c7.127,0.133,13.263-7.537,11.852-14.67c-0.343-1.734-1.507-1.333-2.539-1.392c-7.943-0.445-8.044-0.44-7.9-8.484
		c0.07-3.941-1.769-9.024,0.822-11.511c2.382-2.286,7.384-0.53,11.229-0.673C68.075,99.545,70.201,99.609,72.325,99.614z"/>
	<path fill-rule="evenodd" clip-rule="evenodd" fill="#FEFEFD" d="M146.739,105.434c0-16.239,0.068-32.479-0.062-48.718
		c-0.024-2.977,0.902-3.816,3.827-3.788c13.74,0.135,27.482,0.114,41.223,0.013c2.63-0.02,3.856,0.528,3.737,3.491
		c-0.216,5.363-0.182,10.745-0.008,16.11c0.088,2.72-0.691,3.775-3.564,3.672c-5.614-0.202-11.244,0.064-16.86-0.113
		c-2.704-0.085-3.849,0.606-3.684,3.528c0.232,4.109,0.158,8.244,0.023,12.362c-0.075,2.277,0.718,3.09,3.013,3.032
		c4.993-0.126,9.994,0.045,14.988-0.067c2.236-0.05,3.113,0.688,3.066,2.999c-0.116,5.743-0.11,11.493,0.004,17.236
		c0.046,2.311-0.846,3.043-3.077,2.993c-4.995-0.112-9.995,0.059-14.989-0.068c-2.302-0.058-3.089,0.772-3.006,3.041
		c0.138,3.743,0.172,7.501-0.01,11.239c-0.125,2.57,0.949,3.18,3.299,3.128c5.744-0.125,11.494,0.048,17.237-0.08
		c2.453-0.054,3.645,0.514,3.557,3.289c-0.178,5.615-0.122,11.241-0.02,16.861c0.04,2.204-0.64,3.108-2.974,3.097
		c-14.24-0.076-28.482-0.108-42.722,0.018c-3.078,0.027-3.021-1.652-3.017-3.808C146.753,138.412,146.739,121.923,146.739,105.434z"
		/>
	<path fill-rule="evenodd" clip-rule="evenodd" fill="#FEFEFD" d="M451.968,158.65c-6.996-0.001-13.992-0.068-20.987,0.037
		c-2.286,0.034-3.024-0.785-3.021-3.045c0.051-33.23,0.051-66.461-0.001-99.692c-0.004-2.306,0.828-3.001,3.066-2.99
		c14.241,0.072,28.483,0.058,42.726,0.008c1.997-0.006,2.962,0.547,2.926,2.742c-0.097,5.871-0.117,11.745,0.01,17.613
		c0.054,2.462-1.135,2.878-3.206,2.852c-5.87-0.075-11.745,0.069-17.613-0.064c-2.399-0.055-3.36,0.642-3.258,3.164
		c0.172,4.241,0.148,8.497,0.007,12.739c-0.078,2.309,0.766,3.065,3.031,3.009c4.995-0.123,9.996,0.047,14.99-0.073
		c2.269-0.055,3.093,0.739,3.049,3.023c-0.111,5.745-0.115,11.495,0.002,17.238c0.047,2.334-0.881,3.02-3.094,2.971
		c-4.994-0.11-9.996,0.064-14.989-0.068c-2.321-0.062-3.07,0.79-2.987,3.047c0.141,3.742,0.176,7.5-0.006,11.239
		c-0.124,2.572,0.954,3.176,3.303,3.124c5.744-0.125,11.497,0.104,17.237-0.094c2.88-0.099,3.642,0.972,3.552,3.683
		c-0.175,5.241-0.188,10.497,0.004,15.736c0.106,2.879-0.723,3.955-3.754,3.867C465.964,158.513,458.964,158.652,451.968,158.65z"/>
	<path fill-rule="evenodd" clip-rule="evenodd" fill="#FDFEFD" d="M271.556,253.999c-3.529,1.249-5.716,0.528-7.442-2.281
		c-2.26-3.676-4.811-7.173-8.03-10.571c0,3.545-0.036,7.089,0.015,10.633c0.025,1.707-0.256,2.802-2.397,2.845
		c-2.283,0.047-2.681-1.025-2.67-2.959c0.055-9.233,0.059-18.467-0.001-27.7c-0.012-1.965,0.455-3.016,2.695-2.941
		c3.236,0.105,6.481-0.104,9.667,0.717c4.402,1.137,7.363,4.271,7.652,8.172c0.274,3.699-2.009,7.32-6.254,8.8
		c-2.835,0.987-2.395,1.89-0.98,3.824C266.495,246.209,268.923,250.07,271.556,253.999z"/>
	<path fill-rule="evenodd" clip-rule="evenodd" fill="#FEFEFD" d="M99.359,234.307c-0.224,3.555,0.463,7.811-0.641,11.997
		c-1.492,5.658-6.275,9.266-12.143,9.046c-6.322-0.236-10.944-3.964-11.923-9.799c-1.246-7.431-0.379-14.934-0.601-22.4
		c-0.06-2.005,1.214-2.061,2.704-2.119c1.835-0.071,2.364,0.811,2.356,2.486c-0.03,6.237-0.076,12.477,0.047,18.713
		c0.089,4.551,2.543,7.496,6.319,7.995c5.166,0.682,8.651-2.253,8.763-7.644c0.128-6.111,0.041-12.226,0.04-18.34
		c0-1.656-0.164-3.198,2.367-3.252c2.594-0.055,2.771,1.342,2.728,3.297C99.31,227.404,99.359,230.523,99.359,234.307z"/>
	<path fill-rule="evenodd" clip-rule="evenodd" fill="#FDFEFD" d="M436.927,220.297c3.938,8.177,7.542,15.658,11.141,23.141
		c1.244,2.588,2.557,5.146,3.668,7.788c0.4,0.951,2.038,2.335,0.187,3.079c-1.325,0.532-3.249,0.873-4.349-0.959
		c-0.256-0.428-0.563-0.861-0.672-1.333c-1.176-5.118-4.539-6.59-9.377-5.759c-0.85,0.146-1.77,0.152-2.615-0.002
		c-3.563-0.645-5.633,0.879-6.627,4.249c-0.314,1.065-0.79,2.125-1.398,3.053c-1.033,1.576-2.715,1.025-4.113,0.821
		c-1.43-0.209-0.746-1.358-0.429-2.058C427.067,241.882,431.833,231.464,436.927,220.297z"/>
	<path fill-rule="evenodd" clip-rule="evenodd" fill="#FDFEFD" d="M22.178,220.293c3.903,8.098,7.47,15.486,11.027,22.881
		c1.298,2.697,2.616,5.388,3.833,8.122c0.41,0.92,1.654,2.232,0.372,2.895c-1.321,0.683-3.167,0.905-4.442-0.616
		c-0.314-0.373-0.588-0.846-0.697-1.316c-1.265-5.44-4.889-6.901-9.966-5.994c-0.484,0.086-1.015,0.097-1.494-0.002
		c-4.221-0.867-6.558,1.064-7.604,5.015c-0.612,2.309-1.863,3.671-4.546,3.268c-1.424-0.214-1.717-0.806-1.186-1.976
		C12.26,242.037,17.063,231.514,22.178,220.293z"/>
	<path fill-rule="evenodd" clip-rule="evenodd" fill="#FDFEFD" d="M320.683,220.235c5.365,11.206,10.32,21.54,15.25,31.887
		c0.346,0.726,1.08,1.804-0.133,2.203c-1.262,0.415-2.736,0.517-3.975-0.296c-0.378-0.248-0.539-0.82-0.807-1.24
		c-1.314-2.074-1.391-5.72-3.679-6.184c-3.962-0.801-8.197-0.282-12.317-0.256c-1.239,0.007-1.521,1.16-1.947,2.027
		c-0.771,1.566-1.457,3.175-2.208,4.752c-1.044,2.19-3.114,1.672-4.551,1.113c-1.436-0.557-0.193-1.927,0.22-2.843
		C311.1,241.292,315.698,231.201,320.683,220.235z"/>
	<path fill-rule="evenodd" clip-rule="evenodd" fill="#FDFEFD" d="M602.69,220.245c5.352,11.183,10.307,21.517,15.232,31.865
		c0.34,0.715,1.115,1.878-0.098,2.188c-1.466,0.373-3.332,0.916-4.416-0.839c-0.913-1.48-1.746-3.063-2.287-4.707
		c-0.676-2.051-1.946-2.706-3.957-2.496c-0.99,0.104-2.016,0.142-2.995-0.001c-5.47-0.797-9.76,0.163-11.173,6.51
		c-0.575,2.579-3.119,2.144-4.653,1.482c-1.641-0.706-0.093-2.195,0.344-3.166C593.171,241.072,597.743,231.104,602.69,220.245z"/>
	<path fill-rule="evenodd" clip-rule="evenodd" fill="#FDFEFD" d="M148.672,220.391c2.373,0.324,5.085,0.813,7.357,2.516
		c0.98,0.733,2.875,1.399,1.295,3.082c-1.019,1.085-2.251,2.725-4.059,0.987c-1.923-1.849-4.262-1.976-6.655-1.571
		c-1.779,0.301-3.434,1.104-3.76,3.129c-0.322,1.995,0.806,3.346,2.527,4.149c2.372,1.105,4.853,1.987,7.176,3.182
		c7.729,3.97,8.994,12.437,2.644,17.264c-5.678,4.317-15.505,1.425-17.978-5.267c-0.389-1.051-0.611-2,0.742-2.395
		c1.332-0.39,2.828-1.58,3.916,0.395c0.863,1.566,1.951,2.888,3.565,3.727c3.092,1.607,6.791,0.818,8.317-1.782
		c1.47-2.505,0.336-5.692-2.912-7.47c-2.067-1.132-4.351-1.859-6.497-2.857c-4.679-2.174-7.118-6.093-6.263-9.939
		C139.027,223.312,143.328,220.299,148.672,220.391z"/>
	<path fill-rule="evenodd" clip-rule="evenodd" fill="#FDFEFD" d="M499.156,255.248c-4.472-0.274-8.148-2.503-10.557-6.742
		c-0.594-1.045-1.538-2.338,0.368-3.023c1.295-0.466,2.827-1.595,3.91,0.385c0.671,1.226,1.484,2.309,2.612,3.137
		c2.993,2.197,7.19,1.783,9.06-0.888c1.855-2.651,0.666-6.006-3.029-7.95c-2.198-1.157-4.611-1.899-6.842-3.002
		c-3.979-1.966-6.266-5.799-5.694-9.264c0.604-3.672,3.629-6.391,8.098-7.252c3.643-0.703,6.934,0.316,9.95,2.264
		c1.02,0.657,2.869,1.409,1.289,3.077c-1.014,1.071-2.239,2.745-4.055,0.989c-1.919-1.855-4.26-1.975-6.653-1.574
		c-1.783,0.298-3.431,1.1-3.765,3.124c-0.329,1.999,0.805,3.337,2.518,4.157c2.92,1.398,6.018,2.484,8.781,4.135
		c4.313,2.576,5.961,6.973,4.646,11.192C508.411,252.446,504.38,255.295,499.156,255.248z"/>
	<path fill-rule="evenodd" clip-rule="evenodd" fill="#F5FAF0" d="M200.674,240.574c-0.001-2.993-0.001-5.986-0.001-8.979
		c-0.001-6.164,0.038-5.383-5.158-5.36c-1.783,0.008-3.168-0.059-3.141-2.491c0.023-2.062,0.645-2.903,2.8-2.86
		c5.485,0.111,10.975,0.106,16.46,0.014c1.93-0.031,2.625,0.594,2.644,2.563c0.021,2.129-0.755,2.768-2.842,2.813
		c-5.466,0.118-5.465,0.213-5.466,5.69c-0.002,6.609-0.046,13.22,0.026,19.829c0.021,1.951-0.403,2.994-2.668,2.988
		c-2.247-0.005-2.73-1.018-2.681-2.983C200.743,248.059,200.676,244.315,200.674,240.574z"/>
	<path fill-rule="evenodd" clip-rule="evenodd" fill="#FEFEFE" d="M378.404,235.239c0,3.737,0.093,7.479-0.035,11.212
		c-0.074,2.199,0.57,3.275,2.941,3.063c1.606-0.146,3.239,0.037,4.855-0.03c1.798-0.075,2.771,0.457,2.757,2.503
		c-0.014,1.885-0.628,2.724-2.59,2.676c-3.486-0.085-6.978-0.084-10.464,0.001c-1.915,0.047-2.653-0.684-2.642-2.62
		c0.06-9.469,0.057-18.938,0.007-28.406c-0.011-1.888,0.629-2.669,2.597-2.671c1.984-0.001,2.618,0.817,2.582,2.688
		c-0.074,3.86-0.021,7.724-0.021,11.586C378.396,235.239,378.4,235.239,378.404,235.239z"/>
	<path fill-rule="evenodd" clip-rule="evenodd" fill="#FEFEFE" d="M552.391,238.227c-0.001,4.603-0.052,9.207,0.023,13.809
		c0.03,1.914-0.69,2.631-2.624,2.636c-1.997,0.005-2.568-0.849-2.56-2.698c0.05-9.455,0.056-18.912,0.003-28.366
		c-0.01-1.911,0.686-2.634,2.621-2.64c1.998-0.006,2.583,0.857,2.559,2.703C552.349,228.521,552.392,233.374,552.391,238.227z"/>
	<path fill-rule="evenodd" clip-rule="evenodd" fill="#BCDD93" d="M310.598,102.101c-0.035,0.578-0.069,1.156-0.104,1.735
		c-1.511-3.207-2.058-6.558-2.217-9.989C309.922,96.353,309.122,99.546,310.598,102.101z"/>
	<path fill-rule="evenodd" clip-rule="evenodd" fill="#8DC442" d="M557.508,106.548c-0.092-6.5,0.042-12.979,1.55-19.35
		c0.577-2.44,1.361-4.802,2.655-6.961c3.979-6.644,11.983-6.824,16.204-0.306c2.639,4.075,3.629,8.722,4.096,13.474
		c1.04,10.594,1.108,21.166-0.954,31.67c-0.389,1.98-1.14,3.825-2.15,5.559c-2.255,3.865-5.452,6.081-10.116,5.729
		c-4.453-0.335-6.955-3.135-8.448-6.938C557.454,122.06,557.624,114.276,557.508,106.548z"/>
	<path fill-rule="evenodd" clip-rule="evenodd" fill="#90C648" d="M258.842,225.367c4.701,0.143,7.376,2.25,7.21,5.52
		c-0.153,3.012-3.423,5.665-7.509,5.041c-5.188-0.793-1.559-5.145-2.389-7.759C255.469,226.011,256.714,224.89,258.842,225.367z"/>
	<path fill-rule="evenodd" clip-rule="evenodd" fill="#97C952" d="M436.997,231.28c1.928,3.977,3.423,7.061,4.868,10.042
		c-0.374,0.401-0.525,0.705-0.683,0.709c-2.82,0.06-7.715,1.015-8.037-0.342C432.387,238.494,435.383,235.473,436.997,231.28z"/>
	<path fill-rule="evenodd" clip-rule="evenodd" fill="#96C952" d="M22.239,231.462c0.973,1.893,1.593,2.954,2.077,4.074
		c0.878,2.031,3.333,4.557,2.313,5.947c-1.352,1.842-4.59,0.43-7.003,0.663c-1.376,0.133-2.232-0.212-1.441-1.874
		C19.461,237.594,20.67,234.883,22.239,231.462z"/>
	<path fill-rule="evenodd" clip-rule="evenodd" fill="#96C952" d="M315.854,242.166c1.733-3.806,3.152-6.926,4.9-10.765
		c1.686,3.422,3.055,6.169,4.394,8.929c0.823,1.695-0.205,1.863-1.53,1.846C321.259,242.145,318.899,242.166,315.854,242.166z"/>
	<path fill-rule="evenodd" clip-rule="evenodd" fill="#96C952" d="M597.938,241.978c1.654-3.628,3.074-6.742,4.71-10.329
		c2.149,3.541,3.754,6.678,4.974,10.329C604.402,241.978,601.471,241.978,597.938,241.978z"/>
</g>
</svg>
